<svg xmlns="http://www.w3.org/2000/svg" xmlns:svg="http://www.w3.org/2000/svg" id="Layer_1" width="100" height="100" x="0" y="0" version="1.1" xml:space="preserve"><style xmlns="http://www.w3.org/2000/svg">@keyframes clock-minute{0%{transform:rotate(0deg)}}svg{fill:rgba(255,255,255,.1)}#seconds{transform-origin:128.1px 66.5px;-moz-transform-origin:128.1px 66.5px;animation:clock-minute 60s steps(60) infinite}</style><metadata id="metadata12"/><g id="clock" transform="matrix(1.2091898,0,0,1.2106538,-103.50665,-31.961259)" style="image-rendering:auto"><path id="circle" d="m 128.1,26.4 c -0.4,0 -0.8,0 -1.3,0 -0.5,0 -1.1,0 -1.6,0 v 3 3.4 h 2.8 v -3.4 c 20.6,0.7 37.1,17.6 37.1,38.3 0,21.2 -17.2,38.3 -38.3,38.3 -21.2,0 -38.3,-17.2 -38.3,-38.3 0,-7.9 2.4,-15.2 6.5,-21.3 l -2.5,-1.6 c -4.4,6.6 -6.9,14.4 -6.9,22.9 0,22.8 18.5,41.3 41.3,41.3 9.1,0 17.4,-2.9 24.3,-7.9 10.3,-7.5 17.1,-19.7 17.1,-33.5 -0.2,-22.3 -18,-40.6 -40.2,-41.2" class="st2"/><polygon id="seconds" points="128.1 66.5 128.1 36 125.2 36 125.2 66.5" class="st2"/></g></svg>