<svg xmlns="http://www.w3.org/2000/svg" xmlns:svg="http://www.w3.org/2000/svg" id="svg2" width="750.021" height="745.744" version="1.1" viewBox="0 0 750.021 745.744" xml:space="preserve"><metadata id="metadata8"/><defs id="defs6"><clipPath id="clipPath18" clipPathUnits="userSpaceOnUse"><path id="path16" d="M 0,559.308 H 562.516 V 0 H 0 Z"/></clipPath></defs><g id="g10" transform="matrix(1.3333333,0,0,-1.3333333,0,745.744)"><g id="g12"><g id="g14" clip-path="url(#clipPath18)"><g id="g20" transform="translate(292.9968,536.8757)"><path id="path22" style="fill:#55a4da;fill-opacity:1;fill-rule:nonzero;stroke:none" d="m 0,0 c -2.622,0.079 -5.25,0.131 -7.89,0.131 -3.324,0 -6.63,-0.071 -9.923,-0.195 V -18.861 -40.097 H 0 v 21.303 c 128.708,-4.166 231.773,-109.8 231.773,-239.52 0,-132.362 -107.301,-239.663 -239.663,-239.663 -132.363,0 -239.663,107.301 -239.663,239.663 0,49.365 14.931,95.24 40.515,133.367 l -15.893,10.017 c -27.412,-41.029 -43.404,-90.337 -43.404,-143.384 0,-142.736 115.709,-258.445 258.445,-258.445 56.68,0 109.099,18.246 151.703,49.186 64.683,46.973 106.742,123.204 106.742,209.259 C 250.555,-118.22 139.083,-4.172 0,0"/></g><g id="g24" transform="translate(293.0256,476.9257)"><path id="path26" style="fill:#55a4da;fill-opacity:1;fill-rule:nonzero;stroke:none" d="M 0,0 -17.837,-0.076 V -190.934 L 0,-190.858 Z"/></g></g></g></g></svg>